<mxfile host="app.diagrams.net" modified="2022-11-25T06:19:41.648Z" agent="5.0 (Windows NT 10.0; Win64; x64) AppleWebKit/537.36 (KHTML, like Gecko) Chrome/107.0.0.0 Safari/537.36" etag="1bdmLTYvADptHIXLeK0P" version="20.5.3" type="github">
  <diagram id="RtVEUDqzVCyqqtY8JFPe" name="Page-1">
    <mxGraphModel dx="1038" dy="571" grid="1" gridSize="10" guides="1" tooltips="1" connect="1" arrows="1" fold="1" page="1" pageScale="1" pageWidth="850" pageHeight="1100" math="0" shadow="0">
      <root>
        <mxCell id="0" />
        <mxCell id="1" parent="0" />
        <mxCell id="CBnTP6omUqdDNAGQ4zTm-16" value="" style="group" parent="1" vertex="1" connectable="0">
          <mxGeometry x="160" y="80" width="580" height="460" as="geometry" />
        </mxCell>
        <mxCell id="CBnTP6omUqdDNAGQ4zTm-1" value="" style="rounded=0;whiteSpace=wrap;html=1;fontSize=24;strokeColor=none;" parent="CBnTP6omUqdDNAGQ4zTm-16" vertex="1">
          <mxGeometry width="560" height="460" as="geometry" />
        </mxCell>
        <mxCell id="CBnTP6omUqdDNAGQ4zTm-2" value="User" style="shape=umlActor;verticalLabelPosition=bottom;verticalAlign=top;html=1;outlineConnect=0;" parent="CBnTP6omUqdDNAGQ4zTm-16" vertex="1">
          <mxGeometry x="65.48387096774194" y="210" width="37.41935483870967" height="80" as="geometry" />
        </mxCell>
        <mxCell id="CBnTP6omUqdDNAGQ4zTm-4" value="" style="rounded=0;whiteSpace=wrap;html=1;" parent="CBnTP6omUqdDNAGQ4zTm-16" vertex="1">
          <mxGeometry x="168.38709677419354" y="50" width="261.93548387096774" height="400" as="geometry" />
        </mxCell>
        <mxCell id="CBnTP6omUqdDNAGQ4zTm-6" value="View oganizer" style="ellipse;whiteSpace=wrap;html=1;" parent="CBnTP6omUqdDNAGQ4zTm-16" vertex="1">
          <mxGeometry x="243.2258064516129" y="210" width="112.25806451612902" height="80" as="geometry" />
        </mxCell>
        <mxCell id="CBnTP6omUqdDNAGQ4zTm-7" value="Use web for &lt;br&gt;identify author" style="ellipse;whiteSpace=wrap;html=1;" parent="CBnTP6omUqdDNAGQ4zTm-16" vertex="1">
          <mxGeometry x="243.2258064516129" y="320" width="112.25806451612902" height="80" as="geometry" />
        </mxCell>
        <mxCell id="CBnTP6omUqdDNAGQ4zTm-8" value="View web page" style="ellipse;whiteSpace=wrap;html=1;" parent="CBnTP6omUqdDNAGQ4zTm-16" vertex="1">
          <mxGeometry x="243.2258064516129" y="100" width="112.25806451612902" height="80" as="geometry" />
        </mxCell>
        <mxCell id="CBnTP6omUqdDNAGQ4zTm-10" value="&lt;font style=&quot;font-size: 24px;&quot;&gt;Use Case Diagram&lt;/font&gt;" style="text;html=1;strokeColor=none;fillColor=none;align=center;verticalAlign=middle;whiteSpace=wrap;rounded=0;" parent="CBnTP6omUqdDNAGQ4zTm-16" vertex="1">
          <mxGeometry x="190.6048387096774" y="10" width="217.5" height="30" as="geometry" />
        </mxCell>
        <mxCell id="CBnTP6omUqdDNAGQ4zTm-11" value="" style="endArrow=none;html=1;rounded=0;fontSize=24;entryX=0;entryY=0.5;entryDx=0;entryDy=0;exitX=0.75;exitY=0.1;exitDx=0;exitDy=0;exitPerimeter=0;" parent="CBnTP6omUqdDNAGQ4zTm-16" source="CBnTP6omUqdDNAGQ4zTm-2" target="CBnTP6omUqdDNAGQ4zTm-8" edge="1">
          <mxGeometry width="50" height="50" relative="1" as="geometry">
            <mxPoint x="84.19354838709677" y="270" as="sourcePoint" />
            <mxPoint x="130.96774193548387" y="220" as="targetPoint" />
          </mxGeometry>
        </mxCell>
        <mxCell id="CBnTP6omUqdDNAGQ4zTm-12" value="" style="endArrow=none;html=1;rounded=0;fontSize=24;entryX=0;entryY=0.5;entryDx=0;entryDy=0;exitX=1;exitY=0.3333333333333333;exitDx=0;exitDy=0;exitPerimeter=0;" parent="CBnTP6omUqdDNAGQ4zTm-16" source="CBnTP6omUqdDNAGQ4zTm-2" target="CBnTP6omUqdDNAGQ4zTm-6" edge="1">
          <mxGeometry width="50" height="50" relative="1" as="geometry">
            <mxPoint x="84.19354838709677" y="270" as="sourcePoint" />
            <mxPoint x="130.96774193548387" y="220" as="targetPoint" />
          </mxGeometry>
        </mxCell>
        <mxCell id="CBnTP6omUqdDNAGQ4zTm-13" value="" style="endArrow=none;html=1;rounded=0;fontSize=24;exitX=1;exitY=1;exitDx=0;exitDy=0;exitPerimeter=0;entryX=0;entryY=0.5;entryDx=0;entryDy=0;" parent="CBnTP6omUqdDNAGQ4zTm-16" source="CBnTP6omUqdDNAGQ4zTm-2" target="CBnTP6omUqdDNAGQ4zTm-7" edge="1">
          <mxGeometry width="50" height="50" relative="1" as="geometry">
            <mxPoint x="84.19354838709677" y="270" as="sourcePoint" />
            <mxPoint x="130.96774193548387" y="220" as="targetPoint" />
          </mxGeometry>
        </mxCell>
      </root>
    </mxGraphModel>
  </diagram>
</mxfile>
